<svg id="Layer_1" enable-background="new 0 0 512 512" viewBox="0 0 512 512" xmlns="http://www.w3.org/2000/svg"><path d="m483.289 265.625c-10.1 0-18.952 5.433-23.795 13.528l-39.717-9.912-15.555-30.306c-1.278-2.491-3.768-4.133-6.562-4.327l-29.857-2.079c.832-5.165 1.383-10.381 1.666-15.628h63.79c3.442 11.391 14.031 19.711 26.53 19.711 15.28 0 27.711-12.431 27.711-27.711s-12.431-27.711-27.711-27.711c-12.499 0-23.088 8.32-26.53 19.711h-63.773c-.283-5.287-.849-10.5-1.675-15.627l29.849-2.079c2.794-.194 5.283-1.836 6.562-4.328l15.555-30.305 39.718-9.912c4.844 8.095 13.695 13.528 23.795 13.528 15.28 0 27.712-12.431 27.712-27.711s-12.432-27.711-27.712-27.711c-14.832 0-26.977 11.712-27.678 26.374l-43.232 10.789c-2.238.559-4.126 2.056-5.18 4.109l-15.151 29.521-27.68 1.928c-17.305-62.6-74.762-108.702-142.793-108.702-81.679 0-148.13 66.45-148.13 148.127 0 26.13 6.898 51.821 19.949 74.293 12.659 21.798 30.798 40.141 52.455 53.045 6.428 3.83 9.968 10.059 9.968 17.538v34.168c0 12.25 8.122 22.636 19.264 26.063v.799c0 20.081 16.337 36.418 36.417 36.418h20.153c20.081 0 36.418-16.337 36.418-36.418v-.8c11.141-3.427 19.263-13.813 19.263-26.063v-34.168c0-7.479 3.54-13.708 9.968-17.538 21.657-12.904 39.796-31.247 52.455-53.045 6.367-10.963 11.257-22.695 14.609-34.867l27.684 1.927 15.151 29.521c1.054 2.052 2.941 3.55 5.18 4.108l43.232 10.789c.701 14.661 12.846 26.374 27.678 26.374 15.28 0 27.711-12.432 27.711-27.712s-12.432-27.709-27.712-27.709zm0-152.868c6.458 0 11.712 5.254 11.712 11.711s-5.254 11.711-11.712 11.711-11.712-5.254-11.712-11.711 5.254-11.711 11.712-11.711zm-23.5 84.433c6.457 0 11.711 5.254 11.711 11.711 0 6.458-5.254 11.712-11.711 11.712-6.458 0-11.712-5.254-11.712-11.712 0-6.457 5.254-11.711 11.712-11.711zm-228.138 238.036h-20.153c-11.123 0-20.181-8.945-20.397-20.018h60.948c-.216 11.073-9.275 20.018-20.398 20.018zm28.418-36.018h-76.988c-6.211 0-11.264-5.053-11.264-11.263v-6.074h99.515v6.074c0 6.211-5.053 11.263-11.263 11.263zm29.041-76.712c-11.299 6.731-17.778 18.134-17.778 31.282v12.094h-99.515v-12.094c0-13.148-6.479-24.55-17.777-31.282-39.844-23.74-64.595-67.268-64.595-113.594 0-72.855 59.273-132.127 132.13-132.127s132.129 59.272 132.129 132.127c0 46.327-24.751 89.853-64.594 113.594zm194.179-17.449c-6.458 0-11.712-5.254-11.712-11.712 0-6.457 5.254-11.711 11.712-11.711 6.457 0 11.711 5.254 11.711 11.711 0 6.458-5.254 11.712-11.711 11.712zm-452.738-207.379c2.208-3.826 7.102-5.139 10.928-2.928l31.509 18.192c3.826 2.209 5.138 7.102 2.928 10.928-1.481 2.566-4.171 4.001-6.936 4.001-1.357 0-2.732-.346-3.992-1.073l-31.509-18.192c-3.826-2.209-5.138-7.102-2.928-10.928zm14.832 118.288h-36.383c-4.418 0-8-3.582-8-8s3.582-8 8-8h36.384c4.418 0 8 3.582 8 8s-3.583 8-8.001 8zm30.533 76.095c2.21 3.826.898 8.719-2.928 10.928l-31.509 18.192c-1.26.728-2.636 1.073-3.992 1.073-2.766 0-5.454-1.435-6.936-4.001-2.21-3.826-.898-8.719 2.928-10.928l31.509-18.192c3.828-2.21 8.72-.897 10.928 2.928zm240.198-144.935c0-2.122-.843-4.156-2.343-5.657l-24.752-24.752c-3.124-3.124-8.189-3.125-11.313 0l-7.946 7.946c-7.15-4.104-14.741-7.25-22.683-9.403v-11.23c0-4.418-3.582-8-8-8h-35.004c-4.418 0-8 3.582-8 8v11.229c-7.944 2.154-15.535 5.3-22.684 9.402l-7.944-7.945c-3.123-3.123-8.188-3.125-11.314 0l-24.752 24.751c-3.124 3.124-3.124 8.189 0 11.313l7.945 7.946c-4.103 7.15-7.25 14.74-9.402 22.683h-11.229c-4.418 0-8 3.582-8 8v35.004c0 4.418 3.582 8 8 8h11.229c2.153 7.944 5.301 15.537 9.402 22.683l-7.944 7.944c-1.501 1.5-2.344 3.535-2.344 5.657s.843 4.156 2.343 5.657l24.752 24.752c3.125 3.122 8.19 3.124 11.313 0l7.945-7.945c7.15 4.104 14.741 7.251 22.684 9.403v11.228c0 4.418 3.582 8 8 8h35.004c4.418 0 8-3.582 8-8v-11.229c7.944-2.153 15.536-5.301 22.683-9.402l7.944 7.944c1.5 1.501 3.535 2.344 5.657 2.344s4.156-.843 5.656-2.343l24.753-24.752c1.501-1.501 2.344-3.535 2.344-5.657s-.843-4.156-2.343-5.657l-7.946-7.945c4.104-7.15 7.25-14.74 9.402-22.682h11.229c4.418 0 8-3.582 8-8v-35.003c0-4.418-3.582-8-8-8h-11.229c-2.153-7.943-5.301-15.535-9.402-22.682l7.945-7.945c1.501-1.501 2.344-3.535 2.344-5.657zm-7.221 52.284h9.563v19.004h-9.563c-3.815 0-7.1 2.694-7.846 6.436-2.071 10.389-6.113 20.141-12.013 28.983-2.117 3.174-1.7 7.4.997 10.098l6.769 6.768-13.439 13.438-6.767-6.768c-2.698-2.698-6.924-3.115-10.099-.998-8.836 5.898-18.588 9.94-28.983 12.014-3.741.746-6.436 4.03-6.436 7.846v9.562h-19.004v-9.562c0-3.815-2.694-7.1-6.436-7.846-10.391-2.071-20.143-6.113-28.984-12.014-3.174-2.118-7.4-1.699-10.097.997l-6.769 6.768-13.438-13.438 6.768-6.767c2.698-2.698 3.115-6.926.998-10.099-5.898-8.836-9.94-18.588-12.014-28.984-.746-3.741-4.03-6.435-7.846-6.435h-9.562v-19.003h9.562c3.815 0 7.1-2.694 7.846-6.436 2.071-10.39 6.113-20.142 12.014-28.983 2.117-3.173 1.7-7.4-.997-10.098l-6.769-6.769 13.438-13.438 6.768 6.768c2.698 2.697 6.924 3.117 10.099.997 8.836-5.897 18.588-9.939 28.983-12.013 3.742-.746 6.436-4.03 6.436-7.845v-9.563h19.004v9.563c0 3.815 2.694 7.1 6.436 7.846 10.39 2.071 20.142 6.113 28.983 12.014 3.173 2.118 7.4 1.699 10.097-.998l6.77-6.769 13.438 13.438-6.769 6.768c-2.698 2.698-3.116 6.925-.998 10.099 5.898 8.836 9.94 18.587 12.014 28.983.746 3.742 4.031 6.436 7.846 6.436zm-87.319-53.036c-34.483 0-62.538 28.055-62.538 62.539 0 34.483 28.055 62.538 62.538 62.538 34.484 0 62.539-28.055 62.539-62.538 0-34.484-28.055-62.539-62.539-62.539zm0 109.077c-25.661 0-46.538-20.877-46.538-46.538 0-25.662 20.877-46.539 46.538-46.539 25.662 0 46.539 20.877 46.539 46.539 0 25.661-20.877 46.538-46.539 46.538z"/></svg>